<svg width="25" height="24" viewBox="0 0 25 24" fill="none" xmlns="http://www.w3.org/2000/svg">
<path d="M20.1066 13C19.8866 13 19.6566 12.93 19.4366 12.88C18.9911 12.7818 18.5533 12.6515 18.1266 12.49C17.6627 12.3212 17.1528 12.33 16.6949 12.5146C16.2371 12.6992 15.8637 13.0466 15.6466 13.49L15.4266 13.94C14.4526 13.3982 13.5576 12.7252 12.7666 11.94C11.9814 11.149 11.3084 10.254 10.7666 9.27999L11.1866 8.99999C11.63 8.78291 11.9774 8.40952 12.162 7.95168C12.3466 7.49384 12.3554 6.9839 12.1866 6.51999C12.0278 6.09241 11.8975 5.65479 11.7966 5.20999C11.7466 4.98999 11.7066 4.75999 11.6766 4.52999C11.5552 3.82561 11.1862 3.18773 10.6362 2.73123C10.0862 2.27473 9.3913 2.0296 8.6766 2.03999H5.6766C5.24564 2.03594 4.81885 2.1248 4.42531 2.30052C4.03177 2.47624 3.68071 2.73469 3.39604 3.05827C3.11136 3.38186 2.89974 3.76298 2.77559 4.1757C2.65145 4.58842 2.61768 5.02305 2.6766 5.44999C3.20934 9.63937 5.12263 13.5319 8.11426 16.5126C11.1059 19.4934 15.0053 21.3925 19.1966 21.91H19.5766C20.314 21.9111 21.026 21.6405 21.5766 21.15C21.893 20.867 22.1457 20.5202 22.3181 20.1323C22.4905 19.7444 22.5786 19.3244 22.5766 18.9V15.9C22.5644 15.2054 22.3114 14.5365 21.8609 14.0077C21.4105 13.4788 20.7904 13.1226 20.1066 13ZM20.6066 19C20.6064 19.142 20.576 19.2823 20.5174 19.4116C20.4588 19.5409 20.3733 19.6563 20.2666 19.75C20.1549 19.8465 20.0242 19.9185 19.883 19.9616C19.7418 20.0046 19.5932 20.0177 19.4466 20C15.7015 19.5198 12.2228 17.8065 9.55932 15.1303C6.8958 12.4541 5.19902 8.96733 4.7366 5.21999C4.72069 5.07351 4.73464 4.92532 4.77761 4.78438C4.82058 4.64344 4.89167 4.51268 4.9866 4.39999C5.08032 4.29332 5.19567 4.20783 5.32498 4.14921C5.4543 4.09058 5.59462 4.06017 5.7366 4.05999H8.7366C8.96915 4.05482 9.19623 4.13087 9.37875 4.27506C9.56127 4.41925 9.68781 4.62256 9.7366 4.84999C9.7766 5.12332 9.8266 5.39332 9.8866 5.65999C10.0021 6.18713 10.1559 6.70517 10.3466 7.20999L8.9466 7.85999C8.8269 7.91491 8.71923 7.99294 8.62976 8.08959C8.5403 8.18623 8.47081 8.2996 8.42528 8.42318C8.37975 8.54677 8.35908 8.67812 8.36445 8.80971C8.36983 8.9413 8.40115 9.07054 8.4566 9.18999C9.89581 12.2727 12.3738 14.7508 15.4566 16.19C15.7001 16.29 15.9731 16.29 16.2166 16.19C16.3413 16.1454 16.4559 16.0764 16.5538 15.9872C16.6516 15.8979 16.7308 15.7901 16.7866 15.67L17.4066 14.27C17.9236 14.4549 18.4512 14.6085 18.9866 14.73C19.2533 14.79 19.5233 14.84 19.7966 14.88C20.024 14.9288 20.2273 15.0553 20.3715 15.2378C20.5157 15.4204 20.5918 15.6474 20.5866 15.88L20.6066 19Z" fill="#2EBD2B"/>
</svg>
