<svg width="23" height="23" viewBox="0 0 23 23" fill="none" xmlns="http://www.w3.org/2000/svg">
<path d="M11.7454 2.68912C6.65972 2.68912 2.53223 6.81661 2.53223 11.9023C2.53223 16.9879 6.65972 21.1154 11.7454 21.1154C16.831 21.1154 20.9585 16.9879 20.9585 11.9023C20.9585 6.81661 16.8402 2.68912 11.7454 2.68912Z" fill="#AFAFAF"/>
<rect x="4.37482" y="4.53175" width="14.741" height="14.741" rx="7.37052" fill="white"/>
<path d="M11.7454 6.3744C8.69396 6.3744 6.21747 8.8509 6.21747 11.9023C6.21747 14.9537 8.69396 17.4302 11.7454 17.4302C14.7967 17.4302 17.2732 14.9537 17.2732 11.9023C17.2732 8.8509 14.8023 6.3744 11.7454 6.3744Z" fill="#AFAFAF"/>
<rect x="8.06012" y="8.21704" width="7.37052" height="7.37052" rx="3.68526" fill="white"/>
<rect x="10.824" y="16.5089" width="1.84263" height="3.68526" fill="#AFAFAF"/>
<rect x="16.352" y="10.981" width="3.68526" height="1.84263" fill="#AFAFAF"/>
<rect x="3.45355" y="10.981" width="3.68526" height="1.84263" fill="#AFAFAF"/>
</svg>
