<svg width="23" height="24" viewBox="0 0 23 24" fill="none" xmlns="http://www.w3.org/2000/svg">
<path d="M11.906 2.80081C6.8203 2.80081 2.69281 6.9283 2.69281 12.014C2.69281 17.0996 6.8203 21.2271 11.906 21.2271C16.9916 21.2271 21.1191 17.0996 21.1191 12.014C21.1191 6.9283 17.0008 2.80081 11.906 2.80081Z" fill="#AFAFAF"/>
<rect x="4.53546" y="4.64343" width="14.741" height="14.741" rx="7.37052" fill="white"/>
<path d="M11.906 6.48608C8.85461 6.48608 6.37811 8.96258 6.37811 12.014C6.37811 15.0654 8.85461 17.5419 11.906 17.5419C14.9574 17.5419 17.4339 15.0654 17.4339 12.014C17.4339 8.96258 14.9629 6.48608 11.906 6.48608Z" fill="#AFAFAF"/>
<rect x="8.22064" y="8.32874" width="7.37052" height="7.37052" rx="3.68526" fill="white"/>
<rect x="10.9846" y="16.6206" width="1.84263" height="3.68526" fill="#AFAFAF"/>
<rect x="16.5125" y="11.0927" width="3.68526" height="1.84263" fill="#AFAFAF"/>
<rect x="3.6142" y="11.0927" width="3.68526" height="1.84263" fill="#AFAFAF"/>
</svg>
