<svg width="30" height="31" viewBox="0 0 30 31" fill="none" xmlns="http://www.w3.org/2000/svg">
<path d="M14.7822 19.2499C14.6218 19.2508 14.4628 19.2201 14.3143 19.1594C14.1658 19.0988 14.0307 19.0094 13.9168 18.8964L9.04115 14.0208C8.81162 13.7912 8.68268 13.4799 8.68268 13.1553C8.68268 12.8307 8.81162 12.5194 9.04115 12.2899C9.27068 12.0604 9.58198 11.9314 9.90658 11.9314C10.2312 11.9314 10.5425 12.0604 10.772 12.2899L14.7822 16.3123L18.7925 12.3021C19.0256 12.1024 19.3256 11.9981 19.6323 12.0099C19.9391 12.0218 20.2301 12.1489 20.4472 12.366C20.6643 12.5831 20.7915 12.8741 20.8033 13.1809C20.8152 13.4876 20.7108 13.7876 20.5111 14.0208L15.6355 18.8964C15.4084 19.1216 15.102 19.2485 14.7822 19.2499Z" fill="#313131"/>
</svg>
