<svg width="25" height="24" viewBox="0 0 25 24" fill="none" xmlns="http://www.w3.org/2000/svg">
<path d="M18.0733 5.46C17.8359 5.46 17.6039 5.53038 17.4066 5.66224C17.2093 5.79409 17.0554 5.98151 16.9646 6.20078C16.8738 6.42005 16.85 6.66133 16.8963 6.89411C16.9426 7.12689 17.0569 7.34071 17.2247 7.50853C17.3926 7.67635 17.6064 7.79064 17.8392 7.83694C18.0719 7.88324 18.3132 7.85948 18.5325 7.76866C18.7518 7.67783 18.9392 7.52402 19.071 7.32668C19.2029 7.12935 19.2733 6.89734 19.2733 6.66C19.2733 6.34174 19.1468 6.03652 18.9218 5.81147C18.6968 5.58643 18.3915 5.46 18.0733 5.46ZM22.6733 7.88C22.6538 7.0503 22.4984 6.2294 22.2133 5.45C21.959 4.78313 21.5633 4.17928 21.0533 3.68C20.5581 3.16743 19.9528 2.77418 19.2833 2.53C18.5059 2.23616 17.6841 2.07721 16.8533 2.06C15.7933 2 15.4533 2 12.7333 2C10.0133 2 9.67328 2 8.61328 2.06C7.78243 2.07721 6.96062 2.23616 6.18328 2.53C5.51495 2.77665 4.91021 3.16956 4.41328 3.68C3.9007 4.17518 3.50745 4.78044 3.26328 5.45C2.96944 6.22734 2.81049 7.04915 2.79328 7.88C2.73328 8.94 2.73328 9.28 2.73328 12C2.73328 14.72 2.73328 15.06 2.79328 16.12C2.81049 16.9508 2.96944 17.7727 3.26328 18.55C3.50745 19.2196 3.9007 19.8248 4.41328 20.32C4.91021 20.8304 5.51495 21.2234 6.18328 21.47C6.96062 21.7638 7.78243 21.9228 8.61328 21.94C9.67328 22 10.0133 22 12.7333 22C15.4533 22 15.7933 22 16.8533 21.94C17.6841 21.9228 18.5059 21.7638 19.2833 21.47C19.9528 21.2258 20.5581 20.8326 21.0533 20.32C21.5655 19.8226 21.9616 19.2182 22.2133 18.55C22.4984 17.7706 22.6538 16.9497 22.6733 16.12C22.6733 15.06 22.7333 14.72 22.7333 12C22.7333 9.28 22.7333 8.94 22.6733 7.88ZM20.8733 16C20.866 16.6348 20.751 17.2637 20.5333 17.86C20.3736 18.2952 20.1172 18.6884 19.7833 19.01C19.4589 19.3405 19.0665 19.5964 18.6333 19.76C18.037 19.9778 17.408 20.0927 16.7733 20.1C15.7733 20.15 15.4033 20.16 12.7733 20.16C10.1433 20.16 9.77328 20.16 8.77328 20.1C8.11417 20.1123 7.45787 20.0109 6.83328 19.8C6.41906 19.6281 6.04463 19.3728 5.73328 19.05C5.40136 18.7287 5.14812 18.3352 4.99328 17.9C4.74913 17.2952 4.61372 16.6519 4.59328 16C4.59328 15 4.53328 14.63 4.53328 12C4.53328 9.37 4.53328 9 4.59328 8C4.59776 7.35106 4.71623 6.70795 4.94328 6.1C5.11932 5.67791 5.38954 5.30166 5.73328 5C6.03709 4.65617 6.41256 4.3831 6.83328 4.2C7.44283 3.98004 8.08527 3.86508 8.73328 3.86C9.73328 3.86 10.1033 3.8 12.7333 3.8C15.3633 3.8 15.7333 3.8 16.7333 3.86C17.368 3.86728 17.997 3.98225 18.5933 4.2C19.0477 4.36865 19.4556 4.64285 19.7833 5C20.111 5.30718 20.367 5.68273 20.5333 6.1C20.7555 6.70893 20.8706 7.35178 20.8733 8C20.9233 9 20.9333 9.37 20.9333 12C20.9333 14.63 20.9233 15 20.8733 16ZM12.7333 6.87C11.7191 6.87198 10.7282 7.17453 9.88593 7.73942C9.04362 8.30431 8.38765 9.1062 8.00091 10.0438C7.61417 10.9813 7.514 12.0125 7.71307 13.0069C7.91214 14.0014 8.40151 14.9145 9.11935 15.631C9.83719 16.3474 10.7513 16.835 11.7461 17.0321C12.741 17.2293 13.7719 17.1271 14.7087 16.7385C15.6455 16.35 16.4462 15.6924 17.0094 14.849C17.5727 14.0056 17.8733 13.0142 17.8733 12C17.8746 11.3251 17.7425 10.6566 17.4845 10.033C17.2266 9.40931 16.8478 8.84281 16.3701 8.36605C15.8925 7.88929 15.3252 7.51168 14.7011 7.25493C14.0769 6.99818 13.4082 6.86736 12.7333 6.87ZM12.7333 15.33C12.0747 15.33 11.4308 15.1347 10.8832 14.7688C10.3356 14.4029 9.9088 13.8828 9.65676 13.2743C9.40472 12.6659 9.33877 11.9963 9.46726 11.3503C9.59575 10.7044 9.9129 10.111 10.3786 9.64533C10.8443 9.17963 11.4377 8.86247 12.0836 8.73398C12.7296 8.6055 13.3991 8.67144 14.0076 8.92348C14.6161 9.17552 15.1362 9.60234 15.5021 10.15C15.868 10.6976 16.0633 11.3414 16.0633 12C16.0633 12.4373 15.9771 12.8703 15.8098 13.2743C15.6424 13.6784 15.3972 14.0454 15.0879 14.3547C14.7787 14.6639 14.4116 14.9092 14.0076 15.0765C13.6036 15.2439 13.1706 15.33 12.7333 15.33Z" fill="#2EBD2B"/>
</svg>
