<svg width="25" height="24" viewBox="0 0 25 24" fill="none" xmlns="http://www.w3.org/2000/svg">
<path d="M21.8238 1.34589H3.41505C2.53353 1.34589 1.81905 2.03853 1.81905 2.89341V21.3976C1.81905 22.2525 2.53377 22.9459 3.41505 22.9459H21.8238C22.7053 22.9459 23.4188 22.2523 23.4188 21.3976V2.89341C23.4188 2.03877 22.7053 1.34589 21.8238 1.34589ZM8.36745 19.4265H5.10393V9.67437H8.36745V19.4265ZM6.73593 8.34213H6.71409C5.61969 8.34213 4.91025 7.59357 4.91025 6.65661C4.91025 5.70069 5.64057 4.97253 6.75657 4.97253C7.87281 4.97253 8.55945 5.70045 8.58105 6.65661C8.58105 7.59381 7.87305 8.34213 6.73593 8.34213ZM20.1318 19.4265H16.8692V14.2089C16.8692 12.8976 16.3964 12.0031 15.2166 12.0031C14.3139 12.0031 13.7782 12.6067 13.543 13.1892C13.4557 13.3975 13.4343 13.6884 13.4343 13.9792V19.4263H10.1722C10.1722 19.4263 10.215 10.5888 10.1722 9.67412H13.4346V11.0568C13.8678 10.3924 14.6415 9.44469 16.3743 9.44469C18.5216 9.44469 20.1318 10.8376 20.1318 13.8345V19.4265ZM13.4134 11.0877C13.4192 11.0786 13.4269 11.0676 13.4346 11.057V11.0877H13.4134Z" fill="#2EBD2B"/>
</svg>
