<svg width="25" height="24" viewBox="0 0 25 24" fill="none" xmlns="http://www.w3.org/2000/svg">
<path d="M20.6667 4H4.66675C3.8711 4 3.10804 4.31607 2.54543 4.87868C1.98282 5.44129 1.66675 6.20435 1.66675 7V17C1.66675 17.7956 1.98282 18.5587 2.54543 19.1213C3.10804 19.6839 3.8711 20 4.66675 20H20.6667C21.4624 20 22.2255 19.6839 22.7881 19.1213C23.3507 18.5587 23.6667 17.7956 23.6667 17V7C23.6667 6.20435 23.3507 5.44129 22.7881 4.87868C22.2255 4.31607 21.4624 4 20.6667 4ZM21.6667 16.75L16.7667 12.35L21.6667 8.92V16.75ZM3.66675 8.92L8.56675 12.35L3.66675 16.75V8.92ZM10.2467 13.53L12.0967 14.82C12.2641 14.9361 12.463 14.9984 12.6667 14.9984C12.8705 14.9984 13.0694 14.9361 13.2367 14.82L15.0867 13.53L20.0867 18H5.26675L10.2467 13.53ZM4.66675 6H20.6667C20.8525 6.00149 21.0341 6.05467 21.1913 6.15358C21.3485 6.25249 21.475 6.39322 21.5567 6.56L12.6667 12.78L3.77675 6.56C3.85846 6.39322 3.98501 6.25249 4.1422 6.15358C4.2994 6.05467 4.48103 6.00149 4.66675 6Z" fill="#2EBD2B"/>
</svg>
