<svg width="25" height="24" viewBox="0 0 25 24" fill="none" xmlns="http://www.w3.org/2000/svg">
<path d="M21.6333 2H3.83328C3.54154 2 3.26175 2.11589 3.05546 2.32218C2.84917 2.52847 2.73328 2.80826 2.73328 3.1V20.9C2.73328 21.0445 2.76173 21.1875 2.81701 21.321C2.87229 21.4544 2.95331 21.5757 3.05546 21.6778C3.1576 21.78 3.27887 21.861 3.41232 21.9163C3.54578 21.9715 3.68882 22 3.83328 22H13.4133V14.25H10.8133V11.25H13.4133V9C13.3594 8.47176 13.4218 7.93813 13.596 7.43654C13.7702 6.93495 14.052 6.47755 14.4217 6.09641C14.7914 5.71528 15.24 5.41964 15.7361 5.23024C16.2322 5.04083 16.7636 4.96225 17.2933 5C18.0716 4.99521 18.8496 5.03528 19.6233 5.12V7.82H18.0333C16.7733 7.82 16.5333 8.42 16.5333 9.29V11.22H19.5333L19.1433 14.22H16.5333V22H21.6333C21.7777 22 21.9208 21.9715 22.0542 21.9163C22.1877 21.861 22.309 21.78 22.4111 21.6778C22.5132 21.5757 22.5943 21.4544 22.6495 21.321C22.7048 21.1875 22.7333 21.0445 22.7333 20.9V3.1C22.7333 2.95555 22.7048 2.81251 22.6495 2.67905C22.5943 2.54559 22.5132 2.42433 22.4111 2.32218C22.309 2.22004 22.1877 2.13901 22.0542 2.08373C21.9208 2.02845 21.7777 2 21.6333 2Z" fill="#2EBD2B"/>
</svg>
