<svg width="25" height="24" viewBox="0 0 25 24" fill="none" xmlns="http://www.w3.org/2000/svg">
<path d="M23.7958 5.13281C22.9801 5.49375 22.1083 5.7375 21.1895 5.85C22.127 5.2875 22.8489 4.39687 23.1864 3.3375C22.3098 3.85781 21.3395 4.2375 20.3036 4.43906C19.4739 3.55312 18.2926 3 16.9895 3C14.4817 3 12.452 5.03437 12.452 7.54219C12.452 7.89844 12.4895 8.24531 12.5692 8.57812C8.79577 8.39062 5.4489 6.58125 3.21296 3.82969C2.8239 4.5 2.5989 5.28281 2.5989 6.1125C2.5989 7.6875 3.40515 9.07969 4.6239 9.89531C3.8739 9.87656 3.17077 9.67031 2.5614 9.32812V9.38437C2.5614 11.5875 4.12702 13.4203 6.20359 13.8375C5.8239 13.9406 5.42077 13.9969 5.00827 13.9969C4.71765 13.9969 4.43171 13.9687 4.15515 13.9125C4.73171 15.7172 6.40984 17.0297 8.39734 17.0672C6.84577 18.2859 4.8864 19.0125 2.75827 19.0125C2.39265 19.0125 2.03171 18.9891 1.67546 18.9469C3.67702 20.25 6.06296 21 8.62234 21C16.9801 21 21.5458 14.0766 21.5458 8.07187C21.5458 7.875 21.5411 7.67812 21.5317 7.48594C22.4176 6.84375 23.1864 6.04688 23.7958 5.13281Z" fill="#2EBD2B"/>
</svg>
