<svg width="23" height="23" viewBox="0 0 23 23" fill="none" xmlns="http://www.w3.org/2000/svg">
<path d="M20.6937 9.44243L18.8511 8.52111C18.5102 8.35528 18.0864 8.48426 17.9206 8.82515C17.7455 9.17525 17.8837 9.58984 18.2246 9.75568L19.6895 10.4835V14.8966L16.2346 14.9058V5.45314C16.2346 3.61051 15 2.68919 13.4706 2.68919H6.10012C4.57073 2.68919 3.33617 3.61051 3.33617 5.45314V20.4245H1.9542C1.57646 20.4245 1.26321 20.7377 1.26321 21.1155C1.26321 21.4932 1.57646 21.8065 1.9542 21.8065H17.6165C17.9943 21.8065 18.3075 21.4932 18.3075 21.1155C18.3075 20.7377 17.9943 20.4245 17.6165 20.4245H16.2346V16.2878L20.3805 16.2786C20.7674 16.2786 21.0715 15.9653 21.0715 15.5876V10.0597C21.0715 9.80174 20.9241 9.5622 20.6937 9.44243ZM5.63946 7.19442C5.63946 5.91379 6.42257 5.45314 7.38074 5.45314H12.1992C13.1482 5.45314 13.9313 5.91379 13.9313 7.19442V8.32764C13.9313 9.59905 13.1482 10.0597 12.19 10.0597H7.38074C6.42257 10.0597 5.63946 9.59905 5.63946 8.31842V7.19442ZM6.10012 12.1327H8.86406C9.2418 12.1327 9.55504 12.4459 9.55504 12.8237C9.55504 13.2014 9.2418 13.5146 8.86406 13.5146H6.10012C5.72238 13.5146 5.40913 13.2014 5.40913 12.8237C5.40913 12.4459 5.72238 12.1327 6.10012 12.1327Z" fill="#AFAFAF"/>
</svg>
