<svg width="23" height="23" viewBox="0 0 23 23" fill="none" xmlns="http://www.w3.org/2000/svg">
<path d="M8.55935 2.68919C6.14551 2.68919 4.18311 4.65159 4.18311 7.06544C4.18311 9.43322 6.03495 11.3495 8.44879 11.4325C8.5225 11.4233 8.5962 11.4233 8.65148 11.4325C8.66991 11.4325 8.67912 11.4325 8.69755 11.4325C8.70676 11.4325 8.70676 11.4325 8.71597 11.4325C11.0745 11.3495 12.9264 9.43322 12.9356 7.06544C12.9356 4.65159 10.9732 2.68919 8.55935 2.68919Z" fill="#AFAFAF"/>
<path d="M13.2396 13.8832C10.6692 12.1695 6.47719 12.1695 3.88829 13.8832C2.71822 14.6663 2.0733 15.7258 2.0733 16.859C2.0733 17.9922 2.71822 19.0425 3.87908 19.8164C5.16892 20.6825 6.86414 21.1155 8.55936 21.1155C10.2546 21.1155 11.9498 20.6825 13.2396 19.8164C14.4005 19.0333 15.0454 17.983 15.0454 16.8406C15.0362 15.7074 14.4005 14.6571 13.2396 13.8832Z" fill="#AFAFAF"/>
<path d="M18.6846 7.60901C18.832 9.39636 17.5606 10.9626 15.8009 11.1745C15.7917 11.1745 15.7917 11.1745 15.7825 11.1745H15.7548C15.6995 11.1745 15.6443 11.1745 15.5982 11.1929C14.7045 11.239 13.8846 10.9534 13.2673 10.4282C14.2162 9.58062 14.7598 8.30921 14.6492 6.92723C14.5848 6.18097 14.3268 5.4992 13.9398 4.91877C14.2899 4.74372 14.6953 4.63316 15.1099 4.59631C16.9157 4.43968 18.528 5.7848 18.6846 7.60901Z" fill="#AFAFAF"/>
<path d="M20.5272 16.1312C20.4535 17.0248 19.8823 17.7987 18.9241 18.3239C18.0028 18.8306 16.8419 19.0702 15.6903 19.0425C16.3536 18.4437 16.7406 17.6974 16.8143 16.9051C16.9064 15.7626 16.3629 14.6663 15.2757 13.791C14.6584 13.3027 13.9398 12.9158 13.1567 12.6302C15.1928 12.0405 17.754 12.4367 19.3295 13.7081C20.1771 14.3899 20.6101 15.2467 20.5272 16.1312Z" fill="#AFAFAF"/>
</svg>
